<?xml version="1.0" encoding="UTF-8" standalone="no"?>
<!DOCTYPE svg PUBLIC "-//W3C//DTD SVG 1.1//EN" "http://www.w3.org/Graphics/SVG/1.1/DTD/svg11.dtd">
<svg width="100%" height="100%" viewBox="0 0 1280 720" version="1.1" xmlns="http://www.w3.org/2000/svg" xmlns:xlink="http://www.w3.org/1999/xlink" xml:space="preserve" xmlns:serif="http://www.serif.com/" style="fill-rule:evenodd;clip-rule:evenodd;stroke-linejoin:round;stroke-miterlimit:2;">
    <g transform="matrix(0.767704,0,0,1,-24.6502,58.2683)">
        <g transform="matrix(144,0,0,144,308.13,348.736)">
            <path d="M0,-0L0,-0.875L0.625,-0.875L0.625,-0.75L0.729,-0.75L0.729,-0.5L0.625,-0.5L0.625,-0.375L0.729,-0.375L0.729,-0.125L0.625,-0.125L0.625,-0L0,-0ZM0.209,-0.125L0.521,-0.125L0.521,-0.375L0.209,-0.375L0.209,-0.125ZM0.209,-0.5L0.521,-0.5L0.521,-0.75L0.209,-0.75L0.209,-0.5Z" style="fill:rgb(152,152,152);fill-rule:nonzero;"/>
        </g>
        <g transform="matrix(144,0,0,144,428.01,348.736)">
            <path d="M0,-0.125L0,-0.5L0.104,-0.5L0.104,-0.625L0.625,-0.625L0.625,-0.5L0.729,-0.5L0.729,-0.125L0.625,-0.125L0.625,-0L0.104,-0L0.104,-0.125L0,-0.125ZM0.209,-0.125L0.521,-0.125L0.521,-0.5L0.209,-0.5L0.209,-0.125Z" style="fill:rgb(152,152,152);fill-rule:nonzero;"/>
        </g>
        <g transform="matrix(144,0,0,144,547.89,348.736)">
            <path d="M0,-0.125L0,-0.5L0.104,-0.5L0.104,-0.625L0.625,-0.625L0.625,-0.5L0.729,-0.5L0.729,-0.125L0.625,-0.125L0.625,-0L0.104,-0L0.104,-0.125L0,-0.125ZM0.209,-0.125L0.521,-0.125L0.521,-0.5L0.209,-0.5L0.209,-0.125Z" style="fill:rgb(152,152,152);fill-rule:nonzero;"/>
        </g>
        <g transform="matrix(144,0,0,144,667.77,348.736)">
            <path d="M0.416,-0L0.209,-0L0.209,-0.5L0,-0.5L0,-0.625L0.209,-0.625L0.209,-0.875L0.416,-0.875L0.416,-0.625L0.625,-0.625L0.625,-0.5L0.416,-0.5L0.416,-0Z" style="fill:rgb(152,152,152);fill-rule:nonzero;"/>
        </g>
        <g transform="matrix(144,0,0,144,787.65,348.736)">
            <path d="M0.209,-0L0.209,-0.125L0.313,-0.125L0.313,-0.5L0.209,-0.5L0.209,-0.625L0.521,-0.625L0.521,-0.125L0.625,-0.125L0.625,-0L0.209,-0ZM0.313,-0.75L0.313,-0.875L0.521,-0.875L0.521,-0.75L0.313,-0.75Z" style="fill:rgb(152,152,152);fill-rule:nonzero;"/>
        </g>
        <g transform="matrix(144,0,0,144,907.53,348.736)">
            <path d="M0,-0L0,-0.625L0.104,-0.625L0.104,-0.5L0.209,-0.5L0.209,-0L0,-0ZM0.209,-0.5L0.209,-0.625L0.625,-0.625L0.625,-0.5L0.729,-0.5L0.729,-0L0.521,-0L0.521,-0.5L0.209,-0.5Z" style="fill:rgb(152,152,152);fill-rule:nonzero;"/>
        </g>
        <g transform="matrix(144,0,0,144,1027.41,348.736)">
            <path d="M0,-0.25L0,-0.5L0.104,-0.5L0.104,-0.625L0.625,-0.625L0.625,-0.5L0.729,-0.5L0.729,-0L0.625,-0L0.625,0.125L0.104,0.125L0.104,-0L0.521,-0L0.521,-0.125L0.104,-0.125L0.104,-0.25L0,-0.25ZM0.209,-0.25L0.521,-0.25L0.521,-0.5L0.209,-0.5L0.209,-0.25Z" style="fill:rgb(152,152,152);fill-rule:nonzero;"/>
        </g>
        <g transform="matrix(144,0,0,144,1147.29,348.736)">
            <rect x="0.209" y="-0.25" width="0.208" height="0.25" style="fill:rgb(152,152,152);fill-rule:nonzero;"/>
        </g>
        <g transform="matrix(144,0,0,144,1267.17,348.736)">
            <rect x="0.209" y="-0.25" width="0.208" height="0.25" style="fill:rgb(152,152,152);fill-rule:nonzero;"/>
        </g>
        <g transform="matrix(144,0,0,144,1387.05,348.736)">
            <rect x="0.209" y="-0.25" width="0.208" height="0.25" style="fill:rgb(152,152,152);fill-rule:nonzero;"/>
        </g>
    </g>
</svg>
